<svg width="25" height="24" viewBox="0 0 25 24" fill="none" xmlns="http://www.w3.org/2000/svg">
<g clip-path="url(#clip0_267_107)">
<path d="M12.3072 17.2446L10.6607 13.7886L5.13507 14.7349L3.68391 17.2446H3.47461L7.28391 6.41034L9.48856 6.0812L13.9537 17.0663L12.3072 17.2446ZM8.38624 9.01606L6.22345 12.8149L10.4932 13.4595L8.38624 9.01606Z" fill="white"/>
<path d="M20.3456 16.3273L14.7148 9.06903L12.5534 11.0085L11.3369 9.30097L18.8683 5.07213L18.9803 5.22941L16.6258 7.35206L21.8316 15.3047L20.3456 16.3273Z" fill="#FFA600"/>
<path d="M12.2091 23.7143C18.7916 23.7143 24.1277 18.4696 24.1277 12C24.1277 5.53038 18.7916 0.285715 12.2091 0.285715C5.62667 0.285715 0.290527 5.53038 0.290527 12C0.290527 18.4696 5.62667 23.7143 12.2091 23.7143Z" stroke="white"/>
</g>
<defs>
<clipPath id="clip0_267_107">
<rect width="25" height="24" fill="white"/>
</clipPath>
</defs>
</svg>
